<svg width="213" height="126" viewBox="0 0 213 126" fill="none" xmlns="http://www.w3.org/2000/svg">
<g clip-path="url(#clip0_164_338)">
<path fill-rule="evenodd" clip-rule="evenodd" d="M88.0996 39.141H124.202V50.4197H101.253V53.8033H111.888C116.552 53.8033 120.191 55.1661 122.803 57.8918C125.415 60.5235 126.721 63.8601 126.721 67.9016C126.721 71.8492 125.415 75.1858 122.803 77.9115C120.191 80.6372 116.552 82 111.888 82H88.0996V39.141ZM110.209 65.082L101.253 65.2229V70.7213H110.209C111.142 70.7213 111.935 70.4863 112.588 70.0164C113.147 69.5464 113.427 68.8415 113.427 67.9016C113.427 67.0557 113.147 66.3978 112.588 65.9279C111.935 65.4579 111.142 65.2229 110.209 65.2229V65.082ZM168.84 81.859H155.827V50.2787H140.294V81.859H127.141V39H168.84V69.5934L178.775 39H195.147L211.1 81.859H196.267L194.728 76.7836H179.195L177.656 81.859H168.84ZM191.229 65.5049L187.031 51.6885L182.693 65.5049H191.229Z" fill="#222222"/>
<path d="M101.1 82H49.046L46.0996 72.8059H80.3343L70.7935 39H88.7527L101.1 82Z" fill="#F59025"/>
<path d="M11.915 96L0.0996094 55H14.7282L19.9326 72.5119L42.2974 72.3729L46.0952 84.1864H60.0205L64.0996 96H11.915Z" fill="#9CA3AC"/>
<path d="M76.0996 69H22.8559L10.0996 28H63.8979L76.0996 69Z" fill="#2D9586"/>
<path fill-rule="evenodd" clip-rule="evenodd" d="M67.0996 89.8919H70.4688V90.8378H68.3631V92.5946H68.9246C69.5797 92.5946 70.0945 92.8198 70.4688 93.2703C70.7496 93.6306 70.89 94.1261 70.89 94.7568C70.89 95.3874 70.7496 95.9279 70.4688 96.3784C70.0945 96.7387 69.5797 96.9189 68.9246 96.9189H67.0996V89.8919ZM68.7842 93.5405H68.3631V95.973H68.7842C68.8778 95.973 68.9714 95.973 69.065 95.973C69.065 95.973 69.1118 95.973 69.2054 95.973C69.299 95.8829 69.3458 95.8378 69.3458 95.8378C69.4394 95.7477 69.4861 95.7027 69.4861 95.7027C69.6733 95.4324 69.7669 95.1171 69.7669 94.7568C69.7669 94.3964 69.6733 94.1261 69.4861 93.9459C69.4861 93.8559 69.4394 93.8108 69.3458 93.8108C69.3458 93.7207 69.299 93.6757 69.2054 93.6757C69.1118 93.6757 69.065 93.6757 69.065 93.6757C68.9714 93.5856 68.8778 93.5405 68.7842 93.5405ZM75.8035 97.0541C75.0547 97.0541 74.54 96.7838 74.2592 96.2432C73.8849 95.6126 73.6509 94.8018 73.5573 93.8108H72.715V96.9189H71.5919V89.8919H72.715V92.8649H73.6977C73.6977 91.964 73.8849 91.2432 74.2592 90.7027C74.6336 90.1622 75.1483 89.8919 75.8035 89.8919C76.5522 89.8919 77.0669 90.2072 77.3477 90.8378C77.722 91.4685 77.9092 92.3243 77.9092 93.4054C77.9092 94.5766 77.722 95.4775 77.3477 96.1081C77.0669 96.7387 76.5522 97.0541 75.8035 97.0541ZM75.8035 96.1081C76.4586 96.1081 76.7861 95.2072 76.7861 93.4054C76.7861 91.6937 76.4586 90.8378 75.8035 90.8378C75.1483 90.8378 74.8208 91.6937 74.8208 93.4054C74.8208 95.2072 75.1483 96.1081 75.8035 96.1081ZM79.8746 96.9189H78.7515V89.8919H80.5765C81.2317 89.8919 81.6996 90.1171 81.9804 90.5676C82.3547 91.018 82.5419 91.5135 82.5419 92.0541C82.5419 92.6847 82.3547 93.2252 81.9804 93.6757C81.6996 94.1261 81.2317 94.3513 80.5765 94.3513H79.8746V96.9189ZM80.4361 93.1351C80.5297 93.1351 80.5765 93.1351 80.5765 93.1351C80.6701 93.1351 80.7637 93.1351 80.8573 93.1351C80.8573 93.1351 80.9041 93.0901 80.9977 93C80.9977 93 81.0445 92.955 81.1381 92.8649C81.2317 92.6847 81.2785 92.4144 81.2785 92.0541C81.2785 91.6036 81.2317 91.2883 81.1381 91.1081C81.0445 91.018 80.9977 90.973 80.9977 90.973C80.9041 90.973 80.8573 90.9279 80.8573 90.8378C80.7637 90.8378 80.6701 90.8378 80.5765 90.8378C80.5765 90.8378 80.5297 90.8378 80.4361 90.8378H79.8746V93.1351H80.4361ZM86.7535 95.973C86.3791 96.6937 85.8176 97.0541 85.0688 97.0541C84.3201 96.964 83.8054 96.6036 83.5246 95.973C83.1503 95.3423 82.9631 94.4865 82.9631 93.4054C82.9631 92.2342 83.1503 91.3333 83.5246 90.7027C83.8054 90.0721 84.3201 89.7568 85.0688 89.7568C85.8176 89.7568 86.3791 90.0721 86.7535 90.7027C87.1278 91.3333 87.315 92.2342 87.315 93.4054C87.315 94.4865 87.1278 95.3423 86.7535 95.973ZM85.0688 95.973C85.724 95.973 86.0515 95.1171 86.0515 93.4054C86.0515 91.6036 85.724 90.7027 85.0688 90.7027C84.4137 90.7027 84.0861 91.6036 84.0861 93.4054C84.0861 95.1171 84.4137 95.973 85.0688 95.973ZM92.5092 96.9189V90.8378H90.8246V96.9189H89.7015V89.7568H93.6323V96.9189H92.5092ZM95.8785 96.9189H94.7554V89.7568H96.44C97.0951 89.7568 97.6099 89.982 97.9842 90.4324C98.265 90.8829 98.4054 91.4234 98.4054 92.0541C98.4054 92.6847 98.265 93.1802 97.9842 93.5405C97.6099 93.991 97.0951 94.2162 96.44 94.2162H95.8785V96.9189ZM96.44 93.2703C96.44 93.2703 96.4868 93.2252 96.5804 93.1351C96.674 93.1351 96.7208 93.1351 96.7208 93.1351C96.8144 93.1351 96.8611 93.0901 96.8611 93C96.9547 93 97.0015 92.955 97.0015 92.8649C97.1887 92.6847 97.2823 92.4144 97.2823 92.0541C97.2823 91.6937 97.1887 91.3784 97.0015 91.1081C97.0015 91.1081 96.9547 91.0631 96.8611 90.973C96.8611 90.973 96.8144 90.9279 96.7208 90.8378C96.7208 90.8378 96.674 90.8378 96.5804 90.8378C96.4868 90.8378 96.44 90.8378 96.44 90.8378H95.8785V93.2703H96.44ZM102.757 95.973C102.383 96.6937 101.821 97.0541 101.073 97.0541C100.324 97.0541 99.8092 96.6937 99.5285 95.973C99.1541 95.3423 98.9669 94.4865 98.9669 93.4054C98.9669 92.3243 99.1541 91.4234 99.5285 90.7027C99.8092 90.0721 100.324 89.7568 101.073 89.7568C101.821 89.7568 102.383 90.0721 102.757 90.7027C103.132 91.4234 103.319 92.3243 103.319 93.4054C103.319 94.4865 103.132 95.3423 102.757 95.973ZM101.073 95.973C101.728 95.973 102.055 95.1171 102.055 93.4054C102.055 91.6036 101.728 90.7027 101.073 90.7027C100.418 90.7027 100.09 91.6036 100.09 93.4054C100.09 95.1171 100.418 95.973 101.073 95.973ZM109.355 96.9189H108.232V92.3243L106.969 96.9189H106.548L105.284 92.3243V96.9189H104.021V89.8919H105.565L106.688 93.8108L107.952 89.8919H109.355V96.9189ZM110.478 89.7568H111.602V92.4595H112.303C112.865 92.4595 113.333 92.6847 113.707 93.1351C114.082 93.4955 114.269 93.991 114.269 94.6216C114.269 95.2523 114.082 95.7928 113.707 96.2432C113.333 96.6937 112.865 96.9189 112.303 96.9189H110.478V89.7568ZM112.163 93.4054H111.602V95.7027H112.163C112.163 95.7027 112.21 95.7027 112.303 95.7027C112.397 95.7027 112.444 95.7027 112.444 95.7027C112.537 95.7027 112.631 95.6577 112.725 95.5676C112.725 95.5676 112.725 95.5225 112.725 95.4324C112.912 95.2523 113.005 94.982 113.005 94.6216C113.005 94.1712 112.912 93.8559 112.725 93.6757C112.725 93.5856 112.725 93.5405 112.725 93.5405C112.631 93.5405 112.537 93.4955 112.444 93.4054C112.444 93.4054 112.397 93.4054 112.303 93.4054C112.21 93.4054 112.163 93.4054 112.163 93.4054ZM115.953 96.7838H114.83V89.7568H115.953V96.7838ZM121.99 89.6216H123.113V96.7838H117.077V89.6216H118.2V95.7027H119.463V89.6216H120.727V95.7027H121.99V89.6216ZM123.815 96.7838V95.8378C124.002 95.8378 124.143 95.7928 124.236 95.7027C124.33 95.6126 124.423 95.3874 124.517 95.027C124.611 94.6667 124.657 94.1261 124.657 93.4054L124.938 89.6216H128.027V96.6486H126.903V90.7027H126.061L125.78 93.5405C125.78 93.6306 125.78 93.7658 125.78 93.9459C125.78 94.1261 125.78 94.2613 125.78 94.3513C125.687 94.5315 125.64 94.7117 125.64 94.8919C125.64 94.982 125.64 95.1171 125.64 95.2973C125.453 95.7477 125.266 96.0631 125.078 96.2432C125.078 96.3333 125.032 96.3784 124.938 96.3784C124.938 96.4685 124.891 96.5135 124.798 96.5135C124.798 96.6036 124.751 96.6486 124.657 96.6486C124.657 96.6486 124.611 96.6937 124.517 96.7838C124.423 96.7838 124.377 96.7838 124.377 96.7838C124.283 96.7838 124.189 96.7838 124.096 96.7838C124.096 96.7838 124.049 96.7838 123.955 96.7838C123.862 96.7838 123.815 96.7838 123.815 96.7838ZM132.098 96.6486H129.15V89.6216H132.098V90.7027H130.273V92.5946H132.098V93.5405H130.273V95.7027H132.098V96.6486ZM136.871 96.6486H135.748V93.5405H134.063V96.6486H132.94V89.6216H134.063V92.5946H135.748V89.6216H136.871V96.6486ZM141.784 96.6486H140.661V93.5405H139.117V96.6486H137.853V89.6216H139.117V92.5946H140.661V89.6216H141.784V96.6486ZM146.417 95.8378C146.043 96.4685 145.481 96.7838 144.732 96.7838C143.984 96.7838 143.469 96.4685 143.188 95.8378C142.814 95.1171 142.627 94.2162 142.627 93.1351C142.627 92.0541 142.814 91.1982 143.188 90.5676C143.469 89.8468 143.984 89.4865 144.732 89.4865C145.481 89.4865 146.043 89.8468 146.417 90.5676C146.791 91.1982 146.978 92.0541 146.978 93.1351C146.978 94.2162 146.791 95.1171 146.417 95.8378ZM144.732 95.8378C145.387 95.8378 145.715 94.9369 145.715 93.1351C145.715 91.4234 145.387 90.5676 144.732 90.5676C144.077 90.5676 143.75 91.4234 143.75 93.1351C143.75 94.9369 144.077 95.8378 144.732 95.8378ZM148.803 96.6486H147.68V89.6216H148.944V93.9459L150.488 89.6216H151.611V96.6486H150.488V92.3243L148.803 96.6486ZM150.769 88.6757C150.675 88.7658 150.535 88.8559 150.348 88.9459C150.254 88.9459 150.161 88.991 150.067 89.0811C149.88 89.0811 149.739 89.0811 149.646 89.0811C149.552 89.0811 149.412 89.0811 149.225 89.0811C149.131 88.991 149.037 88.9459 148.944 88.9459C148.757 88.8559 148.616 88.7658 148.523 88.6757C148.429 88.5856 148.336 88.4955 148.242 88.4054L148.803 88C148.803 88.0901 148.85 88.1802 148.944 88.2703C149.037 88.2703 149.131 88.3153 149.225 88.4054C149.225 88.4054 149.271 88.4054 149.365 88.4054C149.459 88.4054 149.552 88.4054 149.646 88.4054C149.739 88.4054 149.833 88.4054 149.927 88.4054C150.02 88.4054 150.067 88.4054 150.067 88.4054C150.161 88.3153 150.254 88.2703 150.348 88.2703C150.441 88.1802 150.488 88.0901 150.488 88L151.05 88.4054C150.956 88.4955 150.862 88.5856 150.769 88.6757ZM158.069 96.6486H156.805L156.665 95.1622H155.121L154.84 96.6486H153.717L155.261 89.6216H156.525L158.069 96.6486ZM156.525 94.2162L155.823 90.8378L155.261 94.2162H156.525ZM160.596 96.6486H158.63V89.4865H160.596C161.157 89.4865 161.578 89.6667 161.859 90.027C162.14 90.3874 162.28 90.8378 162.28 91.3784C162.28 92.1892 161.906 92.7297 161.157 93C161.532 93 161.812 93.1802 162 93.5405C162.28 93.9009 162.421 94.3063 162.421 94.7568C162.421 95.2973 162.234 95.7477 161.859 96.1081C161.578 96.4685 161.157 96.6486 160.596 96.6486ZM160.315 92.4595C160.783 92.4595 161.017 92.1441 161.017 91.5135C161.017 90.8829 160.783 90.5676 160.315 90.5676H159.753V92.4595H160.315ZM160.315 95.5676C160.877 95.5676 161.157 95.2523 161.157 94.6216C161.157 94.5315 161.157 94.4414 161.157 94.3513C161.157 94.2613 161.157 94.2162 161.157 94.2162C161.157 94.1261 161.157 94.036 161.157 93.9459C161.064 93.8559 161.017 93.8108 161.017 93.8108C160.83 93.6306 160.596 93.5405 160.315 93.5405H159.753V95.5676H160.315ZM164.948 96.6486H163.825V90.5676H162.702V89.6216H166.211V90.5676H164.948V96.6486ZM170.142 95.7027C169.861 96.4234 169.346 96.7838 168.598 96.7838C167.849 96.7838 167.287 96.4234 166.913 95.7027C166.632 95.0721 166.492 94.2162 166.492 93.1351C166.492 92.0541 166.632 91.1532 166.913 90.4324C167.287 89.8018 167.849 89.4865 168.598 89.4865C169.346 89.4865 169.861 89.8018 170.142 90.4324C170.516 91.1532 170.703 92.0541 170.703 93.1351C170.703 94.2162 170.516 95.0721 170.142 95.7027ZM168.598 95.7027C169.253 95.7027 169.58 94.8468 169.58 93.1351C169.58 91.3333 169.253 90.4324 168.598 90.4324C167.943 90.4324 167.615 91.3333 167.615 93.1351C167.615 94.8468 167.943 95.7027 168.598 95.7027ZM176.88 96.6486H175.757V92.0541L174.494 96.6486H174.073L172.669 92.0541V96.6486H171.546V89.6216H173.09L174.213 93.5405L175.477 89.6216H176.88V96.6486ZM181.653 96.6486H180.53L180.25 95.1622H178.705L178.565 96.6486H177.302L178.846 89.4865H180.109L181.653 96.6486ZM180.109 94.3513L179.548 90.973L178.986 94.3513H180.109ZM183.619 96.6486H182.496V90.7027H181.373V89.6216H184.742V90.7027H183.619V96.6486ZM186.567 96.6486H185.444V89.4865H186.567V93.8108L188.111 89.4865H189.234V96.6486H188.111V92.1892L186.567 96.6486ZM192.042 96.7838C191.948 96.7838 191.855 96.7838 191.761 96.7838C191.668 96.7838 191.574 96.7387 191.48 96.6486C191.387 96.6486 191.293 96.6486 191.2 96.6486C191.106 96.5586 191.012 96.5135 190.919 96.5135C190.825 96.4234 190.732 96.3333 190.638 96.2432C190.544 96.2432 190.451 96.1982 190.357 96.1081C190.357 96.018 190.311 95.9279 190.217 95.8378C190.123 95.7477 190.077 95.6577 190.077 95.5676L190.919 95.027C191.2 95.5676 191.574 95.8378 192.042 95.8378C192.603 95.8378 192.884 95.4324 192.884 94.6216C192.884 94.2613 192.791 93.991 192.603 93.8108C192.51 93.8108 192.463 93.7658 192.463 93.6757C192.369 93.6757 192.323 93.6757 192.323 93.6757C192.229 93.5856 192.136 93.5405 192.042 93.5405C192.042 93.5405 191.995 93.5405 191.902 93.5405H191.059V92.5946H191.761C191.855 92.5946 191.948 92.5946 192.042 92.5946C192.042 92.5946 192.089 92.5496 192.182 92.4595C192.276 92.4595 192.323 92.4595 192.323 92.4595C192.416 92.3694 192.463 92.3243 192.463 92.3243C192.65 92.1441 192.744 91.8739 192.744 91.5135C192.744 90.7928 192.463 90.4324 191.902 90.4324C191.902 90.4324 191.855 90.4775 191.761 90.5676C191.761 90.5676 191.714 90.5676 191.621 90.5676C191.527 90.5676 191.48 90.5676 191.48 90.5676C191.48 90.6577 191.434 90.7027 191.34 90.7027C191.34 90.7027 191.293 90.7477 191.2 90.8378C191.2 90.8378 191.153 90.8829 191.059 90.973C191.059 90.973 191.059 91.018 191.059 91.1081C190.966 91.1081 190.919 91.1532 190.919 91.2432L190.217 90.7027C190.404 90.3423 190.638 90.027 190.919 89.7568C191.293 89.5766 191.668 89.4865 192.042 89.4865C192.603 89.4865 193.071 89.6667 193.446 90.027C193.82 90.2973 194.007 90.7477 194.007 91.3784C194.007 91.7387 193.867 92.0991 193.586 92.4595C193.586 92.5496 193.539 92.5946 193.446 92.5946C193.352 92.6847 193.259 92.7748 193.165 92.8649C193.071 92.8649 193.025 92.9099 193.025 93C192.931 93 192.791 93 192.603 93C193.071 93.0901 193.446 93.2703 193.727 93.5405C193.914 93.9009 194.007 94.3063 194.007 94.7568C194.007 95.3874 193.867 95.8829 193.586 96.2432C193.212 96.6036 192.697 96.7838 192.042 96.7838ZM198.64 96.6486H197.517L197.236 95.1622H195.692L195.411 96.6486H194.288L195.832 89.6216H197.096L198.64 96.6486ZM197.096 94.2162L196.534 90.8378L195.832 94.2162H197.096ZM202.571 98V96.6486H199.202V89.6216H200.325V95.7027H201.869V89.6216H203.132V95.7027H203.694V98H202.571ZM205.378 96.6486H204.255V89.6216H205.519V93.8108L207.063 89.6216H208.186V96.6486H207.063V92.1892L205.378 96.6486ZM210.292 96.6486H209.169V89.6216H210.432V93.9459L211.977 89.6216H213.1V96.6486H211.977V92.3243L210.292 96.6486Z" fill="#222222"/>
</g>
<defs>
<clipPath id="clip0_164_338">
<rect width="213" height="126" fill="white"/>
</clipPath>
</defs>
</svg>
